<svg width="42" height="42" viewBox="0 0 42 42" fill="none" xmlns="http://www.w3.org/2000/svg">
<path fill-rule="evenodd" clip-rule="evenodd" d="M19.9766 0.0224986C18.6609 0.0897248 17.4203 0.267754 16.0234 0.589797L15.7591 0.65071L15.7495 1.89206L15.7399 3.13341L14.9729 3.39545C13.8526 3.77822 12.6975 4.29687 11.7677 4.83457L11.4479 5.0195L10.592 4.16337C10.1213 3.69249 9.71817 3.30724 9.69622 3.30724C9.57515 3.30724 8.0343 4.43563 7.303 5.05983C6.30997 5.90746 4.99228 7.31512 4.16156 8.41574C3.78811 8.91055 3.15761 9.84063 3.15761 9.89672C3.15761 9.9207 3.53478 10.346 3.99582 10.8418L4.83403 11.7432L4.70627 11.9687C4.10067 13.0374 3.53953 14.3624 3.15801 15.6247L2.98149 16.2087L1.7469 16.2269L0.512301 16.2452L0.448933 16.5189C0.343162 16.9758 0.169713 18.0309 0.0830065 18.7452C0.010033 19.3464 0.000938688 19.5923 2.56068e-05 20.9897C-0.00117966 22.8256 0.0391786 23.3049 0.330707 24.917L0.387501 25.2311L1.05124 25.2551C1.41625 25.2683 1.97382 25.2895 2.29022 25.3022L2.86549 25.3253L2.90308 25.475C3.23891 26.8135 3.74658 28.1835 4.34158 29.3567L4.60543 29.877L3.73468 30.7684L2.86389 31.6598L3.06973 31.9999C3.53197 32.7637 4.17935 33.6582 4.88761 34.5116C5.43261 35.1683 6.73747 36.4798 7.39431 37.0309C8.16009 37.6735 9.40108 38.584 9.47299 38.556C9.48924 38.5496 9.88297 38.1749 10.348 37.7233C10.813 37.2716 11.2068 36.8976 11.2233 36.892C11.2397 36.8865 11.4409 36.9911 11.6703 37.1244C12.6423 37.6891 13.8001 38.2184 14.8633 38.5838L15.5207 38.8098L15.5303 40.0536L15.5399 41.2973L15.6764 41.333C17.4743 41.8032 19.044 41.9999 20.9992 42C22.7985 42.0001 24.1893 41.8408 25.8837 41.4405L26.3489 41.3306L26.3585 40.0864L26.3681 38.8423L26.9708 38.6351C28.227 38.2033 29.1403 37.7938 30.1858 37.1935C30.4508 37.0414 30.6814 36.9218 30.6984 36.9277C30.7153 36.9337 31.0141 37.2178 31.3624 37.559C32.5091 38.6827 32.4353 38.619 32.5319 38.5673C32.6929 38.4812 33.7465 37.7157 34.1111 37.4198C35.6874 36.141 36.967 34.7902 38.1018 33.2073C38.4185 32.7656 39.0047 31.8657 39.0463 31.7574C39.0614 31.718 38.8055 31.4347 38.2031 30.8238C37.7274 30.3414 37.3435 29.9349 37.3499 29.9204C37.3564 29.9059 37.4791 29.6643 37.6226 29.3834C38.1472 28.3574 38.6516 27.0392 38.9774 25.8437L39.1166 25.3328L39.6636 25.3058C39.9644 25.2909 40.5219 25.2663 40.9025 25.251L41.5945 25.2233L41.6761 24.7671C41.768 24.2537 41.8891 23.3434 41.9455 22.7415C41.9982 22.1787 42.0184 20.4801 41.9804 19.7967C41.927 18.8343 41.7349 17.4472 41.5235 16.4981L41.4632 16.2269H40.2265H38.9897L38.9512 16.0718C38.8477 15.6549 38.3814 14.3153 38.1478 13.7634C37.9218 13.2296 37.48 12.3314 37.1946 11.8255L37.1102 11.6758L37.7838 10.9538C38.1542 10.5567 38.5362 10.1442 38.6325 10.0373L38.8076 9.84289L38.5074 9.39442C36.941 7.05461 35.0236 5.13019 32.6875 3.55311L32.2135 3.23315L31.3361 4.1053L30.4587 4.97746L29.9227 4.6772C28.9833 4.15096 27.8335 3.65425 26.743 3.30344L26.1317 3.1068L26.1221 1.86578L26.1125 0.624761L25.5829 0.506476C23.825 0.113922 21.7291 -0.0670268 19.9766 0.0224986ZM20.6875 0.852863L20.6862 1.06272L20.0124 1.77439L19.3387 2.48607L19.3381 3.29812L19.3374 4.11016H19.2129H19.0883L19.0679 4.41125C19.0566 4.57687 19.0375 4.95844 19.0254 5.25924C19.0126 5.578 18.9874 5.81603 18.9651 5.82986C18.944 5.84289 18.8315 5.86432 18.7151 5.87749C18.5986 5.89067 18.2276 5.95822 17.8905 6.02764C11.7743 7.28705 7.01026 12.1739 5.91961 18.3072C5.73871 19.3244 5.69875 19.8117 5.69817 21.0079C5.69758 22.2045 5.73648 22.6791 5.91961 23.7087C6.65215 27.8272 9.03727 31.4351 12.5911 33.8002L13.0164 34.0832L13.442 34.8357C13.6761 35.2496 13.9676 35.7647 14.0898 35.9804L14.3119 36.3725L17.4912 36.3818L20.6705 36.3911L20.6799 38.8877L20.6893 41.3843L20.0955 41.3616C19.0618 41.3222 17.7643 41.1617 16.799 40.9539C16.558 40.902 16.3156 40.8499 16.2603 40.838L16.1599 40.8163L16.1598 40.3008C16.1596 39.2633 16.1147 38.3072 16.0663 38.3072C15.9719 38.3072 14.9497 37.9628 14.3703 37.7357C13.5815 37.4267 12.4518 36.8691 11.7244 36.4297L11.1421 36.078L10.7565 36.4535C10.5445 36.66 10.1547 37.0407 9.89042 37.2995C9.57789 37.6057 9.39118 37.763 9.35634 37.7496C9.3269 37.7383 9.04183 37.5326 8.72291 37.2924C6.90636 35.9244 5.28538 34.2169 4.03428 32.3535L3.63749 31.7625L4.4841 30.8901C4.94977 30.4102 5.33593 30.0031 5.34232 29.9854C5.34867 29.9677 5.25594 29.7758 5.13629 29.559C4.46003 28.334 3.87602 26.8306 3.50348 25.3556C3.41539 25.0068 3.33851 24.7174 3.33263 24.7123C3.32675 24.7073 2.78003 24.6838 2.11768 24.6602C1.35288 24.6329 0.904634 24.6032 0.88944 24.5785C0.867197 24.5426 0.758796 23.7754 0.673807 23.0524C0.653792 22.8821 0.618145 22.3525 0.594551 21.8754C0.517633 20.3194 0.679139 18.2761 0.98546 16.9295L1.00412 16.8474H2.22557H3.44698L3.48756 16.6923C3.93179 14.9946 4.55656 13.4448 5.34404 12.087L5.59663 11.6515L4.91584 10.922C4.5414 10.5207 4.16317 10.1126 4.07529 10.015L3.91558 9.83756L4.09016 9.5742C4.35243 9.17866 4.92793 8.42077 5.37092 7.88753C5.8211 7.34559 7.08138 6.0707 7.64997 5.58202C8.30355 5.02027 9.517 4.11016 9.61236 4.11016C9.62884 4.11016 10.0266 4.4879 10.4964 4.94957C10.9662 5.41125 11.358 5.78899 11.3671 5.78899C11.3762 5.78899 11.5503 5.68815 11.7539 5.56486C12.9269 4.85472 14.4491 4.18618 15.8316 3.77388L16.3315 3.62483L16.3521 2.40264C16.3677 1.47607 16.3838 1.17356 16.4188 1.15199C16.4441 1.13629 16.7291 1.07319 17.052 1.01173C18.1949 0.794177 19.3505 0.664432 20.2779 0.649578L20.6888 0.643009L20.6875 0.852863ZM23.0263 0.734323C23.6799 0.799651 24.5762 0.934213 25.1273 1.04976L25.5098 1.12998L25.5107 1.66202C25.5118 2.29604 25.546 3.52753 25.5642 3.58549C25.5713 3.60804 25.6351 3.63735 25.706 3.65067C25.928 3.69228 27.0756 4.07257 27.6099 4.28158C28.2693 4.53946 29.4644 5.12063 30.0766 5.48096L30.5567 5.76355L31.4028 4.91859C31.8682 4.45388 32.271 4.07366 32.2979 4.07366C32.3558 4.07366 32.7768 4.36395 33.3703 4.81311C34.7399 5.84979 36.1734 7.28176 37.2256 8.66428C37.61 9.1695 38.0008 9.72902 38.0008 9.77439C38.0008 9.79209 37.6351 10.2007 37.1882 10.6825C36.7412 11.1642 36.371 11.5713 36.3654 11.5871C36.3599 11.6029 36.4646 11.8034 36.598 12.0327C37.35 13.3252 38.0682 15.0655 38.423 16.455L38.5232 16.8474H39.739C40.4723 16.8474 40.9634 16.8612 40.9764 16.8822C41.0127 16.9408 41.2064 18.1484 41.2665 18.6904C41.477 20.5905 41.4305 22.5295 41.1307 24.3388L41.087 24.6028L40.5757 24.6276C40.2945 24.6412 39.7426 24.6634 39.3493 24.677L38.6344 24.7016L38.4795 25.3274C38.1099 26.8212 37.4119 28.5818 36.7143 29.78L36.5687 30.0302L36.7272 30.1997C36.8143 30.293 37.2054 30.6928 37.5962 31.0882L38.3068 31.8071L38.021 32.2378C36.6764 34.2645 34.8751 36.1336 32.8977 37.5543C32.7125 37.6874 32.548 37.7962 32.5323 37.7962C32.4989 37.7962 32.1443 37.4598 31.3499 36.6743L30.7802 36.111L30.2177 36.4494C29.5841 36.8306 28.3419 37.4472 27.683 37.7076C27.4419 37.8029 26.9078 37.9914 26.496 38.1264L25.7472 38.3719L25.7376 39.5974L25.728 40.8229L25.5883 40.8605C24.7405 41.0886 23.0787 41.3133 21.8849 41.3612L21.3097 41.3843V38.8788V36.3733L24.4918 36.364L27.674 36.3546L28.3191 35.2144L28.9642 34.0742L29.3554 33.8198C31.5554 32.3888 33.4404 30.2922 34.6235 27.9605C35.4427 26.346 35.9273 24.7786 36.1804 22.924C36.2554 22.3743 36.2651 22.1579 36.2655 21.0262C36.266 19.6592 36.2367 19.2928 36.0423 18.2342C35.2949 14.1653 32.915 10.5671 29.4361 8.24658C27.6567 7.05968 25.6409 6.2745 23.4141 5.90089C23.1755 5.86085 22.9756 5.8234 22.9701 5.81767C22.9646 5.81194 22.9499 5.54446 22.9374 5.2233C22.9249 4.90213 22.9056 4.52027 22.8943 4.37476L22.8739 4.11016H22.7492H22.6245V3.29158V2.47297L21.9671 1.77038L21.3097 1.06775V0.849651V0.631586L21.8849 0.654651C22.2013 0.667388 22.7149 0.703228 23.0263 0.734323ZM21.5159 2.20323L22.0219 2.74155L22.0112 3.42585L22.0005 4.11016H20.9794H19.9583V3.42541V2.74063L20.4605 2.20344C20.7367 1.90797 20.9733 1.66593 20.9863 1.66556C20.9993 1.6652 21.2376 1.90717 21.5159 2.20323ZM19.8348 5.88935C19.8052 7.26895 19.7205 11.5247 19.6654 14.4021C19.6437 15.5362 19.6177 16.5476 19.6076 16.6495C19.5933 16.7951 19.5525 16.8868 19.4177 17.0766C19.3234 17.2095 19.2317 17.319 19.214 17.32C19.1961 17.321 19.1922 17.1485 19.2051 16.9295C19.2178 16.7137 19.2532 15.8227 19.2836 14.9496C19.3557 12.8816 19.4768 9.54917 19.5017 8.94592C19.5281 8.30413 19.5875 6.70588 19.6114 5.98972C19.6221 5.66855 19.6404 5.25388 19.652 5.06819C19.6726 4.73592 19.6744 4.7306 19.7663 4.7306H19.8596L19.8348 5.88935ZM20.6798 10.1072L20.689 15.4655L20.4789 15.7213L20.2688 15.9771L20.256 15.8557C20.2489 15.7889 20.2616 14.9131 20.2841 13.9094C20.3066 12.9058 20.3487 10.8446 20.3777 9.32913C20.4066 7.81362 20.4414 6.15808 20.4548 5.65016L20.4794 4.72669L20.5749 4.73775L20.6705 4.74884L20.6798 10.1072ZM21.5513 6.90213C21.623 10.6843 21.6393 11.4553 21.6566 11.8656C21.6658 12.0864 21.6822 12.924 21.693 13.7269C21.7038 14.5299 21.7221 15.3551 21.7338 15.5609C21.7466 15.7874 21.7413 15.935 21.7203 15.935C21.7012 15.935 21.5928 15.8246 21.4794 15.6897L21.2731 15.4445V10.1119C21.2731 7.17895 21.2849 4.76757 21.2992 4.75326C21.3135 4.73895 21.3669 4.73209 21.4179 4.73804L21.5105 4.74884L21.5513 6.90213ZM22.3096 5.03169C22.3208 5.19727 22.3389 5.58735 22.3497 5.89848C22.3606 6.20961 22.4186 7.74519 22.4786 9.31088C22.5385 10.8766 22.6204 13.0527 22.6606 14.1466C22.7008 15.2406 22.7441 16.4067 22.7568 16.7379C22.7721 17.1376 22.7676 17.3278 22.7435 17.3036C22.7235 17.2835 22.6328 17.1636 22.542 17.0372L22.3768 16.8072L22.3538 16.0335C22.3282 15.1747 22.2433 11.1341 22.1875 8.12475C22.1677 7.05085 22.1411 5.84786 22.1285 5.4514L22.1057 4.7306H22.1974C22.2864 4.7306 22.2899 4.73983 22.3096 5.03169ZM18.9721 6.69227C18.972 6.89505 18.8504 10.2789 18.8085 11.2452C18.7972 11.5061 18.756 12.6229 18.717 13.7269C18.678 14.8309 18.6376 15.8903 18.6272 16.0809C18.6168 16.2716 18.5975 16.83 18.5841 17.3218C18.5708 17.8136 18.5496 18.2446 18.5371 18.2795C18.5176 18.3337 18.4849 18.3186 18.3141 18.1769C17.4603 17.4684 16.5285 16.9816 15.5573 16.7366C15.2128 16.6497 14.8756 16.6036 14.129 16.5415L13.979 16.529L14.1609 16.9346C14.4958 17.681 14.7362 18.5305 14.806 19.2138C14.8237 19.3876 14.8329 19.5353 14.8264 19.542C14.82 19.5487 14.7106 19.4727 14.5833 19.3732C13.7593 18.7287 12.6332 18.2042 11.5762 17.9726C11.2211 17.8948 10.3085 17.7553 10.288 17.7757C10.2812 17.7826 10.394 17.9666 10.5387 18.1846C11.2889 19.3147 11.7771 20.8165 11.7771 21.9939C11.7771 22.1658 11.7373 22.7986 11.6886 23.3999C11.5683 24.8872 11.5424 25.6632 11.5923 26.2791C11.706 27.6797 12.0863 28.5234 12.9948 29.3907C13.7893 30.149 14.7771 30.6717 16.5123 31.252C16.9814 31.4088 17.3651 31.5478 17.3652 31.5608C17.3652 31.5738 17.2506 31.7071 17.1106 31.8568C16.3259 32.6965 15.2134 33.3218 14.1146 33.5408C13.6631 33.6308 13.4906 33.6258 13.3068 33.5175C12.6846 33.1509 11.7466 32.4448 11.0974 31.8543C8.7136 29.6863 7.07254 26.7389 6.52133 23.6357C6.34536 22.645 6.31749 22.2856 6.31749 21.0079C6.31749 19.7302 6.34536 19.3709 6.52133 18.3802C6.73999 17.1491 7.18404 15.7904 7.74263 14.6434C9.80481 10.4087 13.7292 7.42198 18.3446 6.57432C19.0163 6.45096 18.9722 6.44271 18.9721 6.69227ZM23.5933 6.57271C25.8849 6.97818 28.0762 7.94822 29.9474 9.38555C32.7696 11.5533 34.7117 14.6697 35.4049 18.143C36.0376 21.313 35.593 24.6544 34.1567 27.5225C33.8354 28.1643 33.6524 28.4789 33.2336 29.1101C32.7259 29.8753 32.1914 30.534 31.5263 31.2141C30.6729 32.0865 29.9699 32.6686 29.0184 33.2904C28.5382 33.6042 28.5233 33.611 28.3245 33.6032C27.8523 33.5849 27.0669 33.3565 26.5032 33.0736C25.8929 32.7673 25.2058 32.2496 24.7992 31.7897C24.6834 31.6587 24.5945 31.5464 24.6018 31.5402C24.6091 31.534 24.9026 31.4343 25.2542 31.3187C26.5267 30.9003 27.4878 30.4739 28.1422 30.0374C29.3867 29.2073 30.0221 28.2925 30.2818 26.9568C30.3827 26.4378 30.3737 24.5695 30.2644 23.3502C30.138 21.9397 30.1574 21.4128 30.3672 20.5686C30.5708 19.7493 30.937 18.9098 31.4014 18.1977C31.5519 17.9669 31.6723 17.775 31.669 17.7714C31.6657 17.7678 31.4254 17.7976 31.1351 17.8377C29.6661 18.0406 28.4438 18.5446 27.2904 19.423L27.1169 19.5551L27.1171 19.4512C27.1183 18.8757 27.4883 17.5266 27.8336 16.8392C27.9014 16.7042 27.9569 16.5805 27.9569 16.5645C27.9569 16.5327 27.8612 16.5368 27.2333 16.5955C26.0341 16.7075 24.8048 17.2331 23.7459 18.0864C23.5892 18.2127 23.4538 18.3086 23.4449 18.2997C23.436 18.2908 23.4125 17.8413 23.3926 17.3009C23.3728 16.7604 23.3475 16.1129 23.3365 15.862C23.3254 15.6111 23.2923 14.7488 23.2629 13.9459C23.2336 13.143 23.1926 12.0591 23.1718 11.5372C23.0908 9.50369 22.9899 6.78512 22.9898 6.63753C22.9898 6.5361 23.0058 6.48242 23.0363 6.48242C23.0619 6.48242 23.3126 6.52304 23.5933 6.57271ZM21.4088 16.5828C22.0516 17.3849 22.8655 18.5327 22.9513 18.7585C22.9691 18.8052 23.0527 18.9562 23.1371 19.0939C23.5942 19.8403 24.1219 20.9708 24.3953 21.7895C25.2997 24.4982 25.0237 26.9525 23.558 29.2349C23.0482 30.0288 22.6167 30.5459 21.6341 31.5409L20.9816 32.2015L20.3695 31.5954C20.0329 31.262 19.615 30.8246 19.441 30.6234C18.0219 28.9827 17.2818 27.4053 17.0709 25.572C17.0164 25.0983 17.0453 24.014 17.1259 23.5079C17.4462 21.497 18.4387 19.3937 20.1092 17.1861C20.4491 16.7369 20.9776 16.0809 20.9996 16.0809C21.0035 16.0809 21.1876 16.3068 21.4088 16.5828ZM15.4112 17.3472C16.278 17.5619 17.1498 18.0178 17.9184 18.6585C18.0762 18.7899 18.2052 18.9035 18.2052 18.9109C18.2052 18.9184 18.1535 19.0114 18.0904 19.1177C17.8778 19.4753 17.3648 20.548 17.1816 21.0175C16.4442 22.9079 16.2472 24.6937 16.5848 26.4277C16.8471 27.7752 17.5414 29.2321 18.5129 30.4741C18.6651 30.6686 18.7896 30.8355 18.7896 30.8451C18.7896 30.8798 18.0102 30.3799 17.5508 30.0504C16.8898 29.5763 16.4023 29.1646 15.9867 28.7297C15.2723 27.982 14.8632 27.2202 14.6569 26.2537C14.5909 25.9445 14.5769 25.7577 14.5757 25.1685C14.574 24.3379 14.6327 23.8964 14.923 22.559C15.4579 20.0947 15.4056 20.4104 15.4062 19.6393C15.4067 19.026 15.3955 18.8927 15.3093 18.4853C15.2556 18.2319 15.1572 17.8577 15.0905 17.6538C15.0238 17.4498 14.9766 17.2755 14.9856 17.2665C15.0029 17.2493 15.0574 17.2596 15.4112 17.3472ZM26.9708 17.2675C26.9708 17.2777 26.9136 17.4746 26.8437 17.705C26.6777 18.2524 26.5808 18.7367 26.5317 19.265C26.4707 19.9219 26.5058 20.1561 27.0218 22.5408C27.3043 23.8458 27.3788 24.3912 27.3783 25.1503C27.3778 26.0937 27.2455 26.7012 26.8776 27.4495C26.4322 28.3553 25.6943 29.1275 24.3772 30.0661C23.8859 30.4162 23.2819 30.8055 23.2819 30.7722C23.2819 30.7625 23.4373 30.5447 23.6272 30.2882C25.3953 27.9002 25.9406 25.2228 25.2313 22.4131C24.9662 21.3628 24.4635 20.1282 23.8903 19.1193L23.7607 18.8912L24.0214 18.6669C24.1648 18.5436 24.4557 18.3283 24.6677 18.1885C25.3097 17.7653 25.8298 17.5306 26.5142 17.3551C26.9489 17.2437 26.9708 17.2395 26.9708 17.2675ZM12.1441 18.7818C12.6377 18.9438 13.1793 19.19 13.5659 19.4281C13.891 19.6284 14.4437 20.0392 14.631 20.2198C14.7615 20.3456 14.7632 20.351 14.7284 20.5228C14.709 20.619 14.5862 21.1986 14.4556 21.8109C14.0651 23.6413 14.0189 23.9172 13.9695 24.7123C13.8809 26.1389 14.1817 27.3107 14.9193 28.4125C15.3591 29.0696 16.3163 29.9627 17.337 30.6684C17.68 30.9056 17.8067 31.0079 17.7571 31.0079C17.7084 31.0079 15.9635 30.4044 15.6486 30.2786C14.1473 29.679 13.0903 28.8441 12.5983 27.8693C12.139 26.959 12.081 25.9104 12.3292 22.997C12.4113 22.0331 12.4034 21.6731 12.2847 20.9715C12.1624 20.2486 11.911 19.4515 11.6261 18.8831C11.5686 18.7682 11.5214 18.6571 11.5214 18.636C11.5214 18.5868 11.621 18.6101 12.1441 18.7818ZM30.4405 18.6186C30.4405 18.6294 30.4014 18.7156 30.3536 18.8103C30.0413 19.4294 29.7339 20.4408 29.6226 21.2153C29.5463 21.7464 29.5489 22.1596 29.635 23.1612C29.6738 23.6129 29.7255 24.3619 29.7499 24.8256C29.8595 26.9129 29.5695 27.9257 28.5879 28.8836C28.0277 29.4302 27.1768 29.9403 26.1756 30.3297C25.7502 30.4951 24.1896 31.0147 24.1718 30.9969C24.1645 30.9896 24.3516 30.8499 24.5876 30.6866C25.6039 29.9829 26.5096 29.1513 26.9798 28.4897C27.4148 27.8779 27.7341 27.135 27.8881 26.3766C27.9812 25.9185 28.0166 24.9585 27.9612 24.3946C27.9036 23.8077 27.8142 23.3135 27.5004 21.8474C27.3522 21.1548 27.2202 20.5288 27.2072 20.4562C27.1839 20.3259 27.188 20.3204 27.5063 20.0576C28.192 19.4915 29.0345 19.0265 29.8379 18.7708C30.3522 18.6071 30.4405 18.5848 30.4405 18.6186ZM18.6966 32.0756C18.8966 32.1654 19.0654 32.2545 19.0718 32.2737C19.0782 32.2928 18.8981 32.4887 18.6717 32.709C18.059 33.305 17.5929 33.6581 16.9428 34.0185L16.6117 34.2021L16.9688 34.9499C17.1652 35.3612 17.3265 35.7102 17.3272 35.7255C17.328 35.7409 16.7276 35.7491 15.9931 35.7438L14.6575 35.7342L14.238 34.991C14.0074 34.5822 13.8236 34.2435 13.8296 34.2383C13.8357 34.2331 13.9968 34.201 14.1876 34.1669C15.5056 33.9316 16.9418 33.0762 17.8062 32.0115L17.9951 31.779L18.164 31.8456C18.257 31.8822 18.4966 31.9857 18.6966 32.0756ZM24.2253 32.0772C25.1105 33.1191 26.4181 33.8933 27.7286 34.1514C27.9546 34.1959 28.1395 34.2422 28.1395 34.2543C28.1395 34.2664 27.9537 34.6044 27.7267 35.0053L27.3138 35.7342L25.9735 35.7438C25.2364 35.7491 24.6333 35.7468 24.6333 35.7388C24.6333 35.7308 24.7979 35.3833 24.9991 34.9665C25.2004 34.5497 25.3606 34.2054 25.3552 34.2013C25.3499 34.1972 25.2304 34.1307 25.0898 34.0536C24.7077 33.8438 24.3968 33.6387 24.0288 33.3534C23.6204 33.0368 22.8728 32.3257 22.8909 32.271C22.902 32.2372 23.8724 31.7814 23.9445 31.7761C23.9574 31.7751 24.0838 31.9106 24.2253 32.0772ZM23.3297 33.5841C23.5526 33.7755 23.9187 34.056 24.1435 34.2075L24.552 34.4828L24.2519 35.1085L23.9517 35.7342H22.6298H21.3079L21.3069 34.3109L21.306 32.8875L21.4265 32.8149C21.4928 32.7749 21.695 32.6821 21.8758 32.6086L22.2045 32.4749L22.5645 32.8555C22.7625 33.0648 23.1068 33.3927 23.3297 33.5841ZM20.1315 32.6323C20.3074 32.7026 20.5048 32.7928 20.5701 32.8325L20.6888 32.9047V34.3286V35.7525H19.3617H18.0346L17.7304 35.1137C17.563 34.7624 17.4329 34.4704 17.4413 34.4648C17.4496 34.4592 17.6044 34.3579 17.7852 34.2398C18.3048 33.9003 18.5862 33.663 19.1731 33.0693C19.4744 32.7645 19.7413 32.5127 19.7663 32.5097C19.7913 32.5067 19.9556 32.5619 20.1315 32.6323Z" fill="white"/>
</svg>
