<svg width="80" height="80" viewBox="0 0 80 80" fill="none" xmlns="http://www.w3.org/2000/svg">
<path d="M39.5 50H44.5V60H39.5V50Z" fill="#FF4B35"/>
<path d="M30 37H35V60H30V37Z" fill="#FF4B35"/>
<path d="M50 45H55V60H50V45Z" fill="#FF4B35"/>
<path fill-rule="evenodd" clip-rule="evenodd" d="M55 12.5H62.5C63.8261 12.5 65.0979 13.0268 66.0355 13.9645C66.9732 14.9021 67.5 16.1739 67.5 17.5V70C67.5 71.3261 66.9732 72.5978 66.0355 73.5355C65.0979 74.4732 63.8261 75 62.5 75H17.5C16.1739 75 14.9021 74.4732 13.9645 73.5355C13.0268 72.5978 12.5 71.3261 12.5 70H15.5H17.5H62.5V17.5H55V25H30V23.5V16V10V7.5V5H50C51.3261 5 52.5979 5.52678 53.5355 6.46447C54.4732 7.40215 55 8.67392 55 10V12.5ZM50 10H30V20H50V10Z" fill="#FF4B35"/>
</svg>
